# xmcd CD database file
#
# Track frame offsets:
#	150
#	24067
#	36537
#	54677
#	68867
#	81212
#	98420
#	120190
#	131810
#	148280
#	164325
#	184377
#
# Disc length: 2757 seconds
#
# Revision: 0
# Processed by: cddbd v1.5.1PL0 Copyright (c) Steve Scherf et al.
# Submitted via: CDex 1.51
#
DISCID=a50ac30c
DTITLE=うしろ髪ひかれ隊 - ほらね，春が来た FIRST CONCERT '88
DYEAR=1988
DGENRE=JPop
TTITLE0=あなたを知りたい
TTITLE1=NICE!
TTITLE2=ほらね、春が来た
TTITLE3=予感のスコール
TTITLE4=麦わらでダンス
TTITLE5=BAB CALL
TTITLE6=抱いてくれたらいいのに
TTITLE7=禁断のテレパシー
TTITLE8=ごめんねカウボーイ
TTITLE9=メビウスの恋人
TTITLE10=うしろ髪ひかれたい
TTITLE11=時の河を越えて
EXTD=YEAR: 1988
EXTT0=
EXTT1=
EXTT2=
EXTT3=
EXTT4=
EXTT5=
EXTT6=
EXTT7=
EXTT8=
EXTT9=
EXTT10=
EXTT11=
PLAYORDER=
